<mxfile host="app.diagrams.net" modified="2024-07-01T18:08:14.578Z" agent="Mozilla/5.0 (Windows NT 10.0; Win64; x64) AppleWebKit/537.36 (KHTML, like Gecko) Chrome/126.0.0.0 Safari/537.36" etag="HvHXR6EP0PCo8TkQbUKX" version="24.6.4" type="device">
  <diagram name="‫עמוד-1‬" id="TuJFT-kbt3ZMEhVEAf-x">
    <mxGraphModel dx="1434" dy="746" grid="1" gridSize="10" guides="1" tooltips="1" connect="1" arrows="1" fold="1" page="1" pageScale="1" pageWidth="827" pageHeight="1169" math="0" shadow="0">
      <root>
        <mxCell id="0" />
        <mxCell id="1" parent="0" />
        <mxCell id="1HA0gxkmwByOSAY0RlAE-8" value="end" style="rounded=1;whiteSpace=wrap;html=1;" parent="1" vertex="1">
          <mxGeometry x="160" y="620" width="120" height="60" as="geometry" />
        </mxCell>
        <mxCell id="1HA0gxkmwByOSAY0RlAE-10" value="start" style="rounded=1;whiteSpace=wrap;html=1;" parent="1" vertex="1">
          <mxGeometry x="160" y="100" width="120" height="60" as="geometry" />
        </mxCell>
        <mxCell id="1HA0gxkmwByOSAY0RlAE-11" value="5. store input in x, sstore another input in y, print" style="text;html=1;align=center;verticalAlign=middle;whiteSpace=wrap;rounded=0;" parent="1" vertex="1">
          <mxGeometry x="135" y="40" width="170" height="30" as="geometry" />
        </mxCell>
        <mxCell id="A_6DLMi9P8cwQAO1j1V2-30" value="" style="edgeStyle=orthogonalEdgeStyle;rounded=0;orthogonalLoop=1;jettySize=auto;html=1;" edge="1" parent="1" source="A_6DLMi9P8cwQAO1j1V2-8" target="1HA0gxkmwByOSAY0RlAE-8">
          <mxGeometry relative="1" as="geometry" />
        </mxCell>
        <mxCell id="A_6DLMi9P8cwQAO1j1V2-8" value="print(y)" style="shape=document;whiteSpace=wrap;html=1;boundedLbl=1;" vertex="1" parent="1">
          <mxGeometry x="160" y="505" width="120" height="80" as="geometry" />
        </mxCell>
        <mxCell id="A_6DLMi9P8cwQAO1j1V2-15" value="" style="edgeStyle=orthogonalEdgeStyle;rounded=0;orthogonalLoop=1;jettySize=auto;html=1;" edge="1" parent="1" source="A_6DLMi9P8cwQAO1j1V2-4">
          <mxGeometry relative="1" as="geometry">
            <mxPoint x="220" y="400" as="targetPoint" />
            <Array as="points">
              <mxPoint x="220" y="385" />
              <mxPoint x="221" y="385" />
            </Array>
          </mxGeometry>
        </mxCell>
        <mxCell id="A_6DLMi9P8cwQAO1j1V2-4" value="print(x)" style="shape=document;whiteSpace=wrap;html=1;boundedLbl=1;" vertex="1" parent="1">
          <mxGeometry x="160" y="290" width="120" height="80" as="geometry" />
        </mxCell>
        <mxCell id="A_6DLMi9P8cwQAO1j1V2-19" value="" style="edgeStyle=orthogonalEdgeStyle;rounded=0;orthogonalLoop=1;jettySize=auto;html=1;" edge="1" parent="1" target="A_6DLMi9P8cwQAO1j1V2-18">
          <mxGeometry relative="1" as="geometry">
            <mxPoint x="220" y="160" as="sourcePoint" />
            <Array as="points" />
            <mxPoint x="220" y="620" as="targetPoint" />
          </mxGeometry>
        </mxCell>
        <mxCell id="A_6DLMi9P8cwQAO1j1V2-32" value="" style="edgeStyle=orthogonalEdgeStyle;rounded=0;orthogonalLoop=1;jettySize=auto;html=1;" edge="1" parent="1" source="A_6DLMi9P8cwQAO1j1V2-18" target="A_6DLMi9P8cwQAO1j1V2-4">
          <mxGeometry relative="1" as="geometry" />
        </mxCell>
        <mxCell id="A_6DLMi9P8cwQAO1j1V2-18" value="x: int&lt;br&gt;&quot;what is x?&quot;" style="shape=card;whiteSpace=wrap;html=1;" vertex="1" parent="1">
          <mxGeometry x="160" y="190" width="120" height="70" as="geometry" />
        </mxCell>
        <mxCell id="A_6DLMi9P8cwQAO1j1V2-31" value="" style="edgeStyle=orthogonalEdgeStyle;rounded=0;orthogonalLoop=1;jettySize=auto;html=1;" edge="1" parent="1" source="A_6DLMi9P8cwQAO1j1V2-21" target="A_6DLMi9P8cwQAO1j1V2-8">
          <mxGeometry relative="1" as="geometry" />
        </mxCell>
        <mxCell id="A_6DLMi9P8cwQAO1j1V2-21" value="y: int&lt;br&gt;&quot;what is y?&quot;" style="shape=card;whiteSpace=wrap;html=1;" vertex="1" parent="1">
          <mxGeometry x="160" y="400" width="120" height="70" as="geometry" />
        </mxCell>
      </root>
    </mxGraphModel>
  </diagram>
</mxfile>
